<svg xmlns="http://www.w3.org/2000/svg" xmlns:xlink="http://www.w3.org/1999/xlink" viewBox="0 0 414.45 373.7"><defs><clipPath id="clip-path"><path d="M365.85,138.16" fill="#7cddf7"/></clipPath><linearGradient id="linear-gradient" x1="-2606.33" y1="-4752.3" x2="-2569.48" y2="-4852.82" gradientTransform="matrix(0, -1, -1, 0, -4529.31, -2401.37)" gradientUnits="userSpaceOnUse"><stop offset="0" stop-color="#68b6fc"/><stop offset="1" stop-color="#2a49dd"/></linearGradient><clipPath id="clip-path-2"><path d="M252.93,180.13V145.87c0-8,5-14.56,11.24-14.56h59.9c0-18.77-11.74-34-26.22-34H256.41s-2.84,0-4.21.17h0c-21.9,0-42,15.58-52.44,40.54l-20.53,49.28L141.75,99H106.1V223.66c.09,24.12,34.09,43.67,34.09,43.67V172.62l26.22,60.64h26.22l26.22-60.64v59c0,19.71,12.32,35.68,27.51,35.68l6.2-.24h0c1.31.1,2.76.15,4.2.15H297.9c14.47,0,26.2-15.21,26.2-34H264.16c-6.2,0-11.23-6.52-11.23-14.56h0Z" fill="none"/></clipPath><linearGradient id="linear-gradient-2" x1="4955.28" y1="-1409.86" x2="4907.8" y2="-1336.06" gradientTransform="matrix(1, 0, 0, -1, -4757.88, -1213.78)" gradientUnits="userSpaceOnUse"><stop offset="0" stop-color="#68b6fc"/><stop offset="0.81" stop-color="#355de3"/><stop offset="1" stop-color="#1d3391"/></linearGradient><linearGradient id="linear-gradient-3" x1="5048.55" y1="-1505.47" x2="5023.03" y2="-1351.1" xlink:href="#linear-gradient-2"/><linearGradient id="linear-gradient-4" x1="4847.42" y1="-1303.85" x2="4910.69" y2="-1476.4" gradientTransform="matrix(1, 0, 0, -1, -4757.88, -1213.78)" xlink:href="#linear-gradient"/><linearGradient id="linear-gradient-5" x1="4973.35" y1="-1311.54" x2="5014.4" y2="-1423.5" gradientTransform="matrix(1, 0, 0, -1, -4757.88, -1213.78)" xlink:href="#linear-gradient"/><linearGradient id="linear-gradient-6" x1="4861.81" y1="-1457.86" x2="4902.64" y2="-1315.51" gradientTransform="matrix(1, 0, 0, -1, -4757.88, -1213.78)" xlink:href="#linear-gradient"/></defs><title>Asset 1</title><g id="Layer_2" data-name="Layer 2"><g id="graphic_element" data-name="graphic element"><path d="M378.89,340H41V244.88l13.66-8.08V148.65L41,136.32V31.25H378.89V136.36l-12.41,9.3v90l12.41,9.3ZM42.22,338.77H377.65V245.53l-12.41-9.3V145.05l12.41-9.3V32.48H42.22V135.79l13.66,12.32v89.38l-13.66,8.08Z" fill="#7cddf7"/><rect x="69.26" width="2.46" height="19.41" fill="#7cddf7"/><rect x="78.69" width="2.46" height="19.41" fill="#7cddf7"/><rect x="88.12" width="2.46" height="19.41" fill="#7cddf7"/><rect x="97.55" width="2.46" height="19.41" fill="#7cddf7"/><rect x="106.98" width="2.46" height="19.41" fill="#7cddf7"/><rect x="116.41" width="2.46" height="19.41" fill="#7cddf7"/><rect x="125.84" width="2.46" height="19.41" fill="#7cddf7"/><rect x="135.27" width="2.46" height="19.41" fill="#7cddf7"/><rect x="144.7" width="2.46" height="19.41" fill="#7cddf7"/><rect x="154.13" width="2.46" height="19.41" fill="#7cddf7"/><rect x="163.56" width="2.46" height="19.41" fill="#7cddf7"/><rect x="172.99" width="2.46" height="19.41" fill="#7cddf7"/><rect x="182.42" width="2.46" height="19.41" fill="#7cddf7"/><rect x="191.85" width="2.46" height="19.41" fill="#7cddf7"/><rect x="201.28" width="2.46" height="19.41" fill="#7cddf7"/><rect x="210.71" width="2.46" height="19.41" fill="#7cddf7"/><rect x="220.14" width="2.46" height="19.41" fill="#7cddf7"/><rect x="229.57" width="2.46" height="19.41" fill="#7cddf7"/><rect x="239" width="2.46" height="19.41" fill="#7cddf7"/><rect x="248.43" width="2.46" height="19.41" fill="#7cddf7"/><rect x="257.86" width="2.46" height="19.41" fill="#7cddf7"/><rect x="267.29" width="2.46" height="19.41" fill="#7cddf7"/><rect x="276.72" width="2.46" height="19.41" fill="#7cddf7"/><rect x="286.15" width="2.46" height="19.41" fill="#7cddf7"/><rect x="295.58" width="2.46" height="19.41" fill="#7cddf7"/><rect x="305.01" width="2.46" height="19.41" fill="#7cddf7"/><rect x="314.44" width="2.46" height="19.41" fill="#7cddf7"/><rect x="323.87" width="2.46" height="19.41" fill="#7cddf7"/><rect x="333.3" width="2.46" height="19.41" fill="#7cddf7"/><rect x="342.73" width="2.46" height="19.41" fill="#7cddf7"/><rect x="403.39" y="212.7" width="2.43" height="19.68" transform="translate(627.14 -182.07) rotate(90)" fill="#7cddf7"/><rect x="403.39" y="222" width="2.43" height="19.68" transform="translate(636.44 -172.77) rotate(90)" fill="#7cddf7"/><rect x="403.39" y="231.29" width="2.43" height="19.68" transform="translate(645.74 -163.47) rotate(90)" fill="#7cddf7"/><rect x="403.39" y="240.59" width="2.43" height="19.68" transform="translate(655.04 -154.17) rotate(90)" fill="#7cddf7"/><rect x="403.39" y="249.89" width="2.43" height="19.68" transform="translate(664.34 -144.87) rotate(90)" fill="#7cddf7"/><rect x="403.39" y="259.19" width="2.43" height="19.68" transform="translate(673.64 -135.57) rotate(90)" fill="#7cddf7"/><rect x="403.39" y="268.49" width="2.43" height="19.68" transform="translate(682.94 -126.27) rotate(90)" fill="#7cddf7"/><rect x="403.39" y="277.79" width="2.43" height="19.68" transform="translate(692.24 -116.97) rotate(90)" fill="#7cddf7"/><rect x="403.39" y="287.09" width="2.43" height="19.68" transform="translate(701.54 -107.67) rotate(90)" fill="#7cddf7"/><rect x="403.39" y="296.39" width="2.43" height="19.68" transform="translate(710.84 -98.37) rotate(90)" fill="#7cddf7"/><rect x="403.39" y="305.69" width="2.43" height="19.68" transform="translate(720.14 -89.08) rotate(90)" fill="#7cddf7"/><rect x="403.39" y="314.99" width="2.43" height="19.68" transform="translate(729.44 -79.78) rotate(90)" fill="#7cddf7"/><rect x="403.39" y="324.29" width="2.43" height="19.68" transform="translate(738.73 -70.48) rotate(90)" fill="#7cddf7"/><rect x="73.21" y="354.29" width="2.46" height="19.41" fill="#7cddf7"/><rect x="82.64" y="354.29" width="2.46" height="19.41" fill="#7cddf7"/><rect x="92.07" y="354.29" width="2.46" height="19.41" fill="#7cddf7"/><rect x="101.5" y="354.29" width="2.46" height="19.41" fill="#7cddf7"/><rect x="110.93" y="354.29" width="2.46" height="19.41" fill="#7cddf7"/><rect x="120.36" y="354.29" width="2.46" height="19.41" fill="#7cddf7"/><rect x="129.79" y="354.29" width="2.46" height="19.41" fill="#7cddf7"/><rect x="139.22" y="354.29" width="2.46" height="19.41" fill="#7cddf7"/><rect x="148.65" y="354.29" width="2.46" height="19.41" fill="#7cddf7"/><rect x="158.08" y="354.29" width="2.46" height="19.41" fill="#7cddf7"/><rect x="167.51" y="354.29" width="2.46" height="19.41" fill="#7cddf7"/><rect x="176.94" y="354.29" width="2.46" height="19.41" fill="#7cddf7"/><rect x="186.37" y="354.29" width="2.46" height="19.41" fill="#7cddf7"/><rect x="195.8" y="354.29" width="2.46" height="19.41" fill="#7cddf7"/><rect x="205.23" y="354.29" width="2.46" height="19.41" fill="#7cddf7"/><rect x="214.66" y="354.29" width="2.46" height="19.41" fill="#7cddf7"/><rect x="224.09" y="354.29" width="2.46" height="19.41" fill="#7cddf7"/><rect x="233.52" y="354.29" width="2.46" height="19.41" fill="#7cddf7"/><rect x="242.95" y="354.29" width="2.46" height="19.41" fill="#7cddf7"/><rect x="252.38" y="354.29" width="2.46" height="19.41" fill="#7cddf7"/><rect x="261.81" y="354.29" width="2.46" height="19.41" fill="#7cddf7"/><rect x="271.24" y="354.29" width="2.46" height="19.41" fill="#7cddf7"/><rect x="280.67" y="354.29" width="2.46" height="19.41" fill="#7cddf7"/><rect x="290.1" y="354.29" width="2.46" height="19.41" fill="#7cddf7"/><rect x="299.53" y="354.29" width="2.46" height="19.41" fill="#7cddf7"/><rect x="308.96" y="354.29" width="2.46" height="19.41" fill="#7cddf7"/><rect x="318.39" y="354.29" width="2.46" height="19.41" fill="#7cddf7"/><rect x="327.82" y="354.29" width="2.46" height="19.41" fill="#7cddf7"/><rect x="337.25" y="354.29" width="2.46" height="19.41" fill="#7cddf7"/><rect x="346.68" y="354.29" width="2.46" height="19.41" fill="#7cddf7"/><rect x="363.84" y="36.94" width="9.02" height="8.9" fill="#7cddf7"/><rect x="48.12" y="36.94" width="9.02" height="8.9" fill="#7cddf7"/><rect x="363.84" y="325.18" width="9.02" height="8.9" fill="#7cddf7"/><rect x="48.12" y="325.18" width="9.02" height="8.9" fill="#7cddf7"/><ellipse cx="400.26" cy="48.48" rx="4.77" ry="4.71" fill="#7cddf7"/><ellipse cx="400.26" cy="64.93" rx="4.77" ry="4.71" fill="#7cddf7"/><ellipse cx="400.26" cy="81.37" rx="4.77" ry="4.71" fill="#7cddf7"/><ellipse cx="400.26" cy="97.82" rx="4.77" ry="4.71" fill="#7cddf7"/><ellipse cx="400.26" cy="114.26" rx="4.77" ry="4.71" fill="#7cddf7"/><ellipse cx="400.26" cy="130.71" rx="4.77" ry="4.71" fill="#7cddf7"/><ellipse cx="400.26" cy="147.16" rx="4.77" ry="4.71" fill="#7cddf7"/><ellipse cx="400.26" cy="163.6" rx="4.77" ry="4.71" fill="#7cddf7"/><ellipse cx="400.26" cy="180.05" rx="4.77" ry="4.71" fill="#7cddf7"/><ellipse cx="400.26" cy="196.49" rx="4.77" ry="4.71" fill="#7cddf7"/><rect x="8.63" y="146.74" width="2.43" height="19.68" transform="translate(-146.74 166.42) rotate(-90)" fill="#7cddf7"/><rect x="8.63" y="137.44" width="2.43" height="19.68" transform="translate(-137.44 157.12) rotate(-90)" fill="#7cddf7"/><rect x="8.63" y="128.14" width="2.43" height="19.68" transform="translate(-128.14 147.82) rotate(-90)" fill="#7cddf7"/><rect x="8.63" y="118.84" width="2.43" height="19.68" transform="translate(-118.84 138.52) rotate(-90)" fill="#7cddf7"/><rect x="8.63" y="109.54" width="2.43" height="19.68" transform="translate(-109.54 129.22) rotate(-90)" fill="#7cddf7"/><rect x="8.63" y="100.24" width="2.43" height="19.68" transform="translate(-100.24 119.92) rotate(-90)" fill="#7cddf7"/><rect x="8.63" y="90.94" width="2.43" height="19.68" transform="translate(-90.94 110.62) rotate(-90)" fill="#7cddf7"/><rect x="8.63" y="81.65" width="2.43" height="19.68" transform="translate(-81.65 101.33) rotate(-90)" fill="#7cddf7"/><rect x="8.63" y="72.35" width="2.43" height="19.68" transform="translate(-72.35 92.03) rotate(-90)" fill="#7cddf7"/><rect x="8.63" y="63.05" width="2.43" height="19.68" transform="translate(-63.05 82.73) rotate(-90)" fill="#7cddf7"/><rect x="8.63" y="53.75" width="2.43" height="19.68" transform="translate(-53.75 73.43) rotate(-90)" fill="#7cddf7"/><rect x="8.63" y="44.45" width="2.43" height="19.68" transform="translate(-44.45 64.13) rotate(-90)" fill="#7cddf7"/><rect x="8.63" y="35.15" width="2.43" height="19.68" transform="translate(-35.15 54.83) rotate(-90)" fill="#7cddf7"/><ellipse cx="14.19" cy="328.19" rx="4.77" ry="4.71" fill="#7cddf7"/><ellipse cx="14.19" cy="311.74" rx="4.77" ry="4.71" fill="#7cddf7"/><ellipse cx="14.19" cy="295.3" rx="4.77" ry="4.71" fill="#7cddf7"/><ellipse cx="14.19" cy="278.85" rx="4.77" ry="4.71" fill="#7cddf7"/><ellipse cx="14.19" cy="262.4" rx="4.77" ry="4.71" fill="#7cddf7"/><ellipse cx="14.19" cy="245.96" rx="4.77" ry="4.71" fill="#7cddf7"/><ellipse cx="14.19" cy="229.51" rx="4.77" ry="4.71" fill="#7cddf7"/><ellipse cx="14.19" cy="213.07" rx="4.77" ry="4.71" fill="#7cddf7"/><ellipse cx="14.19" cy="196.62" rx="4.77" ry="4.71" fill="#7cddf7"/><ellipse cx="14.19" cy="180.18" rx="4.77" ry="4.71" fill="#7cddf7"/><path d="M365.85,138.16" fill="#7cddf7"/><g clip-path="url(#clip-path)"><path d="M365.85,138.16Z" fill="#7cddf7"/><path d="M365.85,138.16Z" fill="#7cddf7"/><path d="M365.85,138.16Z" fill="#7cddf7"/><path d="M365.85,138.16Z" fill="#7cddf7"/><path d="M365.85,138.16Z" fill="#7cddf7"/><path d="M365.85,138.16Z" fill="#7cddf7"/><path d="M365.85,138.16Z" fill="#7cddf7"/><path d="M365.85,138.16Z" fill="#7cddf7"/><path d="M365.85,138.16Z" fill="#7cddf7"/><path d="M365.85,138.16Z" fill="#7cddf7"/><path d="M365.85,138.16Z" fill="#7cddf7"/><path d="M365.85,138.16Z" fill="#7cddf7"/><path d="M365.85,138.16Z" fill="#7cddf7"/><path d="M365.85,138.16Z" fill="#7cddf7"/><path d="M365.85,138.16Z" fill="#7cddf7"/><path d="M365.85,138.16Z" fill="#7cddf7"/><path d="M365.85,138.16Z" fill="#7cddf7"/><path d="M365.85,138.16Z" fill="#7cddf7"/><path d="M365.85,138.16Z" fill="#7cddf7"/><path d="M365.85,138.16Z" fill="#7cddf7"/><path d="M365.85,138.16Z" fill="#7cddf7"/><path d="M365.85,138.16Z" fill="#7cddf7"/><path d="M365.85,138.16Z" fill="#7cddf7"/><path d="M365.85,138.16Z" fill="#7cddf7"/><path d="M365.85,138.16Z" fill="#7cddf7"/><path d="M365.85,138.16Z" fill="#7cddf7"/><path d="M365.85,138.16Z" fill="#7cddf7"/><path d="M365.85,138.16Z" fill="#7cddf7"/><path d="M365.85,138.16Z" fill="#7cddf7"/><path d="M365.85,138.16Z" fill="#7cddf7"/><path d="M365.85,138.16Z" fill="#7cddf7"/><path d="M365.85,138.16Z" fill="#7cddf7"/><path d="M365.85,138.16Z" fill="#7cddf7"/><path d="M365.85,138.16Z" fill="#7cddf7"/><path d="M365.85,138.16Z" fill="#7cddf7"/><path d="M365.85,138.16Z" fill="#7cddf7"/><path d="M365.85,138.16Z" fill="#7cddf7"/><path d="M365.85,138.16Z" fill="#7cddf7"/><path d="M365.85,138.16Z" fill="#7cddf7"/><path d="M365.85,138.16Z" fill="#7cddf7"/><path d="M365.85,138.16Z" fill="#7cddf7"/><path d="M365.85,138.16Z" fill="#7cddf7"/><path d="M365.85,138.16Z" fill="#7cddf7"/><path d="M365.85,138.16Z" fill="#7cddf7"/><path d="M365.85,138.16Z" fill="#7cddf7"/><path d="M365.85,138.16Z" fill="#7cddf7"/><path d="M365.85,138.16Z" fill="#7cddf7"/><path d="M365.85,138.16Z" fill="#7cddf7"/><path d="M365.85,138.16Z" fill="#7cddf7"/><path d="M365.85,138.16Z" fill="#7cddf7"/><path d="M365.85,138.16Z" fill="#7cddf7"/><path d="M365.85,138.16Z" fill="#7cddf7"/><path d="M365.85,138.16Z" fill="#7cddf7"/><path d="M365.85,138.16Z" fill="#7cddf7"/><path d="M365.85,138.16Z" fill="#7cddf7"/><path d="M365.85,138.16Z" fill="#7cddf7"/><path d="M365.85,138.16Z" fill="#7cddf7"/><path d="M365.85,138.16Z" fill="#7cddf7"/><path d="M365.85,138.16Z" fill="#7cddf7"/><path d="M365.85,138.16Z" fill="#7cddf7"/><path d="M365.85,138.16Z" fill="#7cddf7"/><path d="M365.85,138.16Z" fill="#7cddf7"/><path d="M365.85,138.16Z" fill="#7cddf7"/><path d="M365.85,138.16Z" fill="#7cddf7"/><path d="M365.85,138.16Z" fill="#7cddf7"/><path d="M365.85,138.16Z" fill="#7cddf7"/><path d="M365.85,138.16Z" fill="#7cddf7"/><path d="M365.85,138.16Z" fill="#7cddf7"/><path d="M365.85,138.16Z" fill="#7cddf7"/><path d="M365.85,138.16Z" fill="#7cddf7"/><path d="M365.85,138.16Z" fill="#7cddf7"/><path d="M365.85,138.16Z" fill="#7cddf7"/><path d="M365.85,138.16Z" fill="#7cddf7"/><path d="M365.85,138.16Z" fill="#7cddf7"/><path d="M365.85,138.16Z" fill="#7cddf7"/><path d="M365.85,138.16Z" fill="#7cddf7"/><path d="M365.85,138.16Z" fill="#7cddf7"/><path d="M365.85,138.16Z" fill="#7cddf7"/><path d="M365.85,138.16Z" fill="#7cddf7"/><path d="M365.85,138.16Z" fill="#7cddf7"/><path d="M365.85,138.16Z" fill="#7cddf7"/><path d="M365.85,138.16Z" fill="#7cddf7"/><path d="M365.85,138.16Z" fill="#7cddf7"/><path d="M365.85,138.16Z" fill="#7cddf7"/><path d="M365.85,138.16Z" fill="#7cddf7"/><path d="M365.85,138.16Z" fill="#7cddf7"/><path d="M365.85,138.16Z" fill="#7cddf7"/><path d="M365.85,138.16Z" fill="#7cddf7"/><path d="M365.85,138.16Z" fill="#7cddf7"/><path d="M365.85,138.16Z" fill="#7cddf7"/><path d="M365.85,138.16Z" fill="#7cddf7"/><path d="M365.85,138.16Z" fill="#7cddf7"/><path d="M365.85,138.16Z" fill="#7cddf7"/><path d="M365.85,138.16Z" fill="#7cddf7"/><path d="M365.85,138.16Z" fill="#7cddf7"/><path d="M365.85,138.16Z" fill="#7cddf7"/><path d="M365.85,138.16Z" fill="#7cddf7"/><path d="M365.85,138.16Z" fill="#7cddf7"/><path d="M365.85,138.16Z" fill="#7cddf7"/><path d="M365.85,138.16Z" fill="#7cddf7"/><path d="M365.85,138.16Z" fill="#7cddf7"/><path d="M365.85,138.16Z" fill="#7cddf7"/><path d="M365.85,138.16Z" fill="#7cddf7"/><path d="M365.85,138.16Z" fill="#7cddf7"/><path d="M365.85,138.16Z" fill="#7cddf7"/><path d="M365.85,138.16Z" fill="#7cddf7"/><path d="M365.85,138.16Z" fill="#7cddf7"/><path d="M365.85,138.16Z" fill="#7cddf7"/><path d="M365.85,138.16Z" fill="#7cddf7"/><path d="M365.85,138.16Z" fill="#7cddf7"/><path d="M365.85,138.16Z" fill="#7cddf7"/><path d="M365.85,138.16Z" fill="#7cddf7"/><path d="M365.85,138.16Z" fill="#7cddf7"/><path d="M365.85,138.16Z" fill="#7cddf7"/><path d="M365.85,138.16Z" fill="#7cddf7"/><path d="M365.85,138.16Z" fill="#7cddf7"/><path d="M365.85,138.16Z" fill="#7cddf7"/><path d="M365.85,138.16Z" fill="#7cddf7"/><path d="M365.85,138.16Z" fill="#7cddf7"/><path d="M365.85,138.16Z" fill="#7cddf7"/><path d="M365.85,138.16Z" fill="#7cddf7"/><path d="M365.85,138.16Z" fill="#7cddf7"/><path d="M365.85,138.16Z" fill="#7cddf7"/><path d="M365.85,138.16Z" fill="#7cddf7"/><path d="M365.85,138.16Z" fill="#7cddf7"/><path d="M365.85,138.16Z" fill="#7cddf7"/><path d="M365.85,138.16Z" fill="#7cddf7"/><path d="M365.85,138.16Z" fill="#7cddf7"/><path d="M365.85,138.16Z" fill="#7cddf7"/><path d="M365.85,138.16Z" fill="#7cddf7"/><path d="M365.85,138.16Z" fill="#7cddf7"/><path d="M365.85,138.16Z" fill="#7cddf7"/><path d="M365.85,138.16Z" fill="#7cddf7"/><path d="M365.85,138.16Z" fill="#7cddf7"/><path d="M365.85,138.16Z" fill="#7cddf7"/><path d="M365.85,138.16Z" fill="#7cddf7"/><path d="M365.85,138.16Z" fill="#7cddf7"/><path d="M365.85,138.16Z" fill="#7cddf7"/><path d="M365.85,138.16Z" fill="#7cddf7"/><path d="M365.85,138.16Z" fill="#7cddf7"/><path d="M365.85,138.16Z" fill="#7cddf7"/><path d="M365.85,138.16Z" fill="#7cddf7"/><path d="M365.85,138.16Z" fill="#7cddf7"/><path d="M365.85,138.16Z" fill="#7cddf7"/><path d="M365.85,138.16Z" fill="#7cddf7"/><path d="M365.85,138.16Z" fill="#7cddf7"/><path d="M365.85,138.16Z" fill="#7cddf7"/><path d="M365.85,138.16Z" fill="#7cddf7"/><path d="M365.85,138.16Z" fill="#7cddf7"/><path d="M365.85,138.16Z" fill="#7cddf7"/><path d="M365.85,138.16Z" fill="#7cddf7"/><path d="M365.85,138.16Z" fill="#7cddf7"/><path d="M365.85,138.16Z" fill="#7cddf7"/><path d="M365.85,138.16Z" fill="#7cddf7"/><path d="M365.85,138.16Z" fill="#7cddf7"/><path d="M365.85,138.16Z" fill="#7cddf7"/><path d="M365.85,138.16Z" fill="#7cddf7"/><path d="M365.85,138.16Z" fill="#7cddf7"/><path d="M365.85,138.16Z" fill="#7cddf7"/><path d="M365.85,138.16Z" fill="#7cddf7"/><path d="M365.85,138.16Z" fill="#7cddf7"/><path d="M365.85,138.16Z" fill="#7cddf7"/><path d="M365.85,138.16Z" fill="#7cddf7"/><path d="M365.85,138.16Z" fill="#7cddf7"/><path d="M365.85,138.16Z" fill="#7cddf7"/><path d="M365.85,138.16Z" fill="#7cddf7"/><path d="M365.85,138.16Z" fill="#7cddf7"/><path d="M365.85,138.16Z" fill="#7cddf7"/><path d="M365.85,138.16Z" fill="#7cddf7"/><path d="M365.85,138.16Z" fill="#7cddf7"/><path d="M365.85,138.16Z" fill="#7cddf7"/><path d="M365.85,138.16Z" fill="#7cddf7"/><path d="M365.85,138.16Z" fill="#7cddf7"/><path d="M365.85,138.16Z" fill="#7cddf7"/><path d="M365.85,138.16Z" fill="#7cddf7"/><path d="M365.85,138.16Z" fill="#7cddf7"/><path d="M365.85,138.16Z" fill="#7cddf7"/><path d="M365.85,138.16Z" fill="#7cddf7"/><path d="M365.85,138.16Z" fill="#7cddf7"/><path d="M365.85,138.16Z" fill="#7cddf7"/><path d="M365.85,138.16Z" fill="#7cddf7"/><path d="M365.85,138.16Z" fill="#7cddf7"/><path d="M365.85,138.16Z" fill="#7cddf7"/><path d="M365.85,138.16Z" fill="#7cddf7"/><path d="M365.85,138.16Z" fill="#7cddf7"/><path d="M365.85,138.16Z" fill="#7cddf7"/><path d="M365.85,138.16Z" fill="#7cddf7"/><path d="M365.85,138.16Z" fill="#7cddf7"/><path d="M365.85,138.16Z" fill="#7cddf7"/><path d="M365.85,138.16Z" fill="#7cddf7"/><path d="M365.85,138.16Z" fill="#7cddf7"/><path d="M365.85,138.16Z" fill="#7cddf7"/><path d="M365.85,138.16Z" fill="#7cddf7"/><path d="M365.85,138.16Z" fill="#7cddf7"/><path d="M365.85,138.16Z" fill="#7cddf7"/><path d="M365.85,138.16Z" fill="#7cddf7"/><path d="M365.85,138.16Z" fill="#7cddf7"/><path d="M365.85,138.16Z" fill="#7cddf7"/><path d="M365.85,138.16Z" fill="#7cddf7"/><path d="M365.85,138.16Z" fill="#7cddf7"/><path d="M365.85,138.16Z" fill="#7cddf7"/><path d="M365.85,138.16Z" fill="#7cddf7"/><path d="M365.85,138.16Z" fill="#7cddf7"/><path d="M365.85,138.16Z" fill="#7cddf7"/><path d="M365.85,138.16Z" fill="#7cddf7"/><path d="M365.85,138.16Z" fill="#7cddf7"/><path d="M365.85,138.16Z" fill="#7cddf7"/><path d="M365.85,138.16Z" fill="#7cddf7"/><path d="M365.85,138.16Z" fill="#7cddf7"/><path d="M365.85,138.16Z" fill="#7cddf7"/><path d="M365.85,138.16Z" fill="#7cddf7"/><path d="M365.85,138.16Z" fill="#7cddf7"/><path d="M365.85,138.16Z" fill="#7cddf7"/><path d="M365.85,138.16Z" fill="#7cddf7"/><path d="M365.85,138.16Z" fill="#7cddf7"/><path d="M365.85,138.16Z" fill="#7cddf7"/><path d="M365.85,138.16Z" fill="#7cddf7"/><path d="M365.85,138.16Z" fill="#7cddf7"/><path d="M365.85,138.16Z" fill="#7cddf7"/><path d="M365.85,138.16Z" fill="#7cddf7"/><path d="M365.85,138.16Z" fill="#7cddf7"/><path d="M365.85,138.16Z" fill="#7cddf7"/><path d="M365.85,138.16Z" fill="#7cddf7"/><path d="M365.85,138.16Z" fill="#7cddf7"/><path d="M365.85,138.16Z" fill="#7cddf7"/><path d="M365.85,138.16Z" fill="#7cddf7"/><path d="M365.85,138.16Z" fill="#7cddf7"/><path d="M365.85,138.16Z" fill="#7cddf7"/><path d="M365.85,138.16Z" fill="#7cddf7"/><path d="M365.85,138.16Z" fill="#7cddf7"/><path d="M365.85,138.16Z" fill="#7cddf7"/><path d="M365.85,138.16Z" fill="#7cddf7"/><path d="M365.85,138.16Z" fill="#7cddf7"/><path d="M365.85,138.16Z" fill="#7cddf7"/><path d="M365.85,138.16Z" fill="#7cddf7"/><path d="M365.85,138.16Z" fill="#7cddf7"/><path d="M365.85,138.16Z" fill="#7cddf7"/><path d="M365.85,138.16Z" fill="#7cddf7"/><path d="M365.85,138.16Z" fill="#7cddf7"/><path d="M365.85,138.16Z" fill="#7cddf7"/><path d="M365.85,138.16Z" fill="#7cddf7"/><path d="M365.85,138.16Z" fill="#7cddf7"/></g><rect x="70.11" y="52.62" width="274.35" height="0.52" fill="#7cddf7"/><rect x="72.6" y="318.79" width="274.35" height="0.7" fill="#7cddf7"/><g id="Layer_2-2" data-name="Layer 2"><g id="OBJECTS"><rect x="222.78" y="168.69" width="100.95" height="35.68" fill="url(#linear-gradient)"/><g clip-path="url(#clip-path-2)"><path d="M218.5,172.6l-26.22,60.66H166.75l-26.57-60.67v94.66h0c-18.83,0-34.09-19.59-34.09-43.69V97.33h35.22l37.83,89.77L217,97.33h35.94V266.92l-6.27.24c-15.36,0-27.82-16-27.82-35.68h0V172.09" fill="url(#linear-gradient-2)"/><path d="M252.93,180.23V145.87c0-8,5.09-14.56,11.37-14.56h60.6c0-18.77-11.88-34-26.53-34H256.73q-19.89,0-28.87,11.52t-9,37v72.86q0,25.49,9,37t28.87,11.52h41.66c14.65,0,26.53-15.21,26.53-34H264.3c-6.28,0-11.37-6.52-11.37-14.56h0Z" fill="url(#linear-gradient-3)"/><rect x="102.17" y="85.44" width="38.02" height="181.81" fill="url(#linear-gradient-4)"/><path d="M166.08,233.26l13.12-46.12,37.45-89.81,80.89-.14s25.17-.31,26.32,34.12h-60s-27.43-.14-49.5,50.94l-22.06,51Z" fill="url(#linear-gradient-5)"/><path d="M107.41,96.28V220.45c0,24.76,15.26,44.82,34.09,44.82h0v12.17h-42V95Z" fill="url(#linear-gradient-6)"/></g></g></g></g></g></svg>