<svg xmlns="http://www.w3.org/2000/svg" viewBox="0 0 137.6 140.04"><title>Asset 1</title><g id="Layer_2" data-name="Layer 2"><g id="Object"><path d="M90.82,115.41h-.13c-1.75,0-4.18,1.4-6.51,3.75a16.69,16.69,0,0,0-1.54,1.76c-.73,1-1.52,2.85-.53,3.68.51.43,1.37.46,2.64.09,2.91-.85,6.79-2.65,8.14-4.92a3.21,3.21,0,0,0,.33-3.13A2.64,2.64,0,0,0,90.82,115.41Z" fill="#ffd66c"/><path d="M90.89,113.91h-.2c-3.08,0-6.33,2.93-7.58,4.19A18.25,18.25,0,0,0,81.44,120c-1.32,1.77-2,4.31-.3,5.72a3.17,3.17,0,0,0,2.11.7,6.82,6.82,0,0,0,1.92-.31c1.15-.34,7-2.19,9-5.59a4.68,4.68,0,0,0,.36-4.61A4.1,4.1,0,0,0,90.89,113.91Zm2,5.86c-1.35,2.26-5.23,4.06-8.14,4.92-1.26.37-2.12.34-2.64-.09-1-.83-.2-2.7.53-3.68a16.69,16.69,0,0,1,1.54-1.76c2.33-2.35,4.76-3.75,6.51-3.75h.13a2.64,2.64,0,0,1,2.39,1.23A3.21,3.21,0,0,1,92.89,119.77Z" fill="#e6b63d"/><path d="M16.65,56.41a14,14,0,0,1-2.67-4c-.47-1.24-.16-2.75-.84-3.86a.52.52,0,0,0-.81-.1c-1.17,1.19-.53,3.54-.09,4.95a7.22,7.22,0,0,0,3.41,4.32A.82.82,0,0,0,16.65,56.41Z" fill="#ffd66c"/><path d="M22.86,56.76a5.49,5.49,0,0,0-2.51.44.69.69,0,0,0,.18,1.36,5.48,5.48,0,0,0,2.51-.4A.72.72,0,0,0,22.86,56.76Z" fill="#ffd66c"/><path d="M35.88,114.18a3.61,3.61,0,0,0-1,0c-.39.13-.77.31-1.15.48-1,.42-.27,2.06.72,1.71.33-.11.66-.22,1-.36a3.89,3.89,0,0,0,.92-.72A.68.68,0,0,0,35.88,114.18Z" fill="#ffd66c"/><path d="M51.44,122.46A14.86,14.86,0,0,1,43.86,124a.5.5,0,0,0-.25.92,7.86,7.86,0,0,0,8.7-1.36C52.95,123,52.14,122.11,51.44,122.46Z" fill="#ffd66c"/><path d="M90.4,126.38c-2.83.92-5.86,1.47-8.61,2.57a.34.34,0,0,0,.09.67c3.06.19,6.2-1,8.86-2.44A.44.44,0,0,0,90.4,126.38Z" fill="#ffd66c"/><path d="M132.1,81.23A7,7,0,0,0,130.6,84c-.1.64.65,1.25,1.18.68a7.23,7.23,0,0,0,1.35-3C133.32,81,132.44,80.73,132.1,81.23Z" fill="#ffd66c"/><path d="M10.9,82a2.81,2.81,0,0,0,3.22.81,5.52,5.52,0,0,0,2.61-2.34,11.12,11.12,0,0,0,1.28-9,4.45,4.45,0,0,0-3.16.76,8.62,8.62,0,0,0-1.94,2.15c-1.26,1.77-2.53,3.72-2.5,5.89A3.12,3.12,0,0,0,10.9,82Z" fill="#ffd66c"/><path d="M61.42,127.06a8.72,8.72,0,0,0,5.16,1.23c1.62,0,3.45-.29,4.4-1.6a3.78,3.78,0,0,0,0-4,8.35,8.35,0,0,0-3.14-2.82,7.26,7.26,0,0,0-5-1.24,4.59,4.59,0,0,0-3.46,3.75A5,5,0,0,0,61.42,127.06Z" fill="#ffd66c"/><path d="M44.94,112.81a3.45,3.45,0,0,0-.8-.09,2.81,2.81,0,0,0-2.25,1,3.22,3.22,0,0,0-.22,3.07,9.22,9.22,0,0,0,2.19,2.93c.91.9,2.3,2.13,3.72,1.89a2.91,2.91,0,0,0,2.11-2.83,7.12,7.12,0,0,0-4.75-6Z" fill="#ffd66c"/><path d="M24.65,86.37a4.68,4.68,0,0,0-1.16.14,4.79,4.79,0,0,0-3,2.33,7.37,7.37,0,0,0-.55,5.52,6.65,6.65,0,0,0,.34.93A82.74,82.74,0,0,0,25,104.23a17,17,0,0,0,3.29,4.18A6,6,0,0,0,32.87,110a5.57,5.57,0,0,0,4-2.8,9.93,9.93,0,0,0,1.22-5.1A16,16,0,0,0,33.9,91.38C31.67,89,27.67,86.37,24.65,86.37Z" fill="#ffd66c"/><path d="M67.82,85c-.24-1.64-1.29-2.44-3.22-2.44-2.94,0-7,2.05-8.14,3.67-.79,1.15-1,3-.09,4a3,3,0,0,0,2.34.85h0a10.91,10.91,0,0,0,3-.53,12.8,12.8,0,0,0,4.34-1.9A4.13,4.13,0,0,0,67.82,85Z" fill="#ffd66c"/><path d="M79.62,96a11.51,11.51,0,0,0-1.83-.13c-4.36,0-10.86,1.84-11.68,5.92a4.31,4.31,0,0,0,.65,3.14,4.24,4.24,0,0,0,1.61,1.49A5.71,5.71,0,0,0,71,107c4.38,0,10.36-2.74,12.18-5a3.87,3.87,0,0,0,1-2.32C84.18,97.77,81.89,96.42,79.62,96Z" fill="#ffd66c"/><path d="M63,51.17a13.52,13.52,0,0,0,6.43,1.45h.41a15.41,15.41,0,0,0,5.57-.9c3.65-1.4,6.39-4.59,8.81-7.83,1.92-2.57,3.64-5.35,3.25-8.22-.47-3.45-3.95-5.66-7-6a10.45,10.45,0,0,0-1.12-.06,16.41,16.41,0,0,0-8.66,2.95,49.16,49.16,0,0,0-6.51,5.14c-2.46,2.23-5.22,5.21-4.82,8.55A6.86,6.86,0,0,0,63,51.17Z" fill="#ffd66c"/><path d="M71,19.65a29.31,29.31,0,0,0,5.7.48c.72,0,1.32,0,1.75,0a7.17,7.17,0,0,0,3.51-.83,2.5,2.5,0,0,0,1.33-2.07,2.39,2.39,0,0,0-1.29-2,12.92,12.92,0,0,0-6.59-1.84,10.74,10.74,0,0,0-3.26.49c-1.62.51-3.5,1.71-4,3a1.69,1.69,0,0,0,.22,1.56C68.54,18.73,69.11,19.26,71,19.65Z" fill="#ffd66c"/><path d="M30.3,40.18a19.25,19.25,0,0,0,.65-6.2,3,3,0,0,0-.46-1.56,2.12,2.12,0,0,0-1.7-.65,5.22,5.22,0,0,0-1.28.17C23.46,33,20.63,36.38,19,39c-1.49,2.39-2.48,9-.81,12a3,3,0,0,0,3.72,1.46C27.38,51.26,29.86,42,30.3,40.18Z" fill="#ffd66c"/><path d="M30.55,59.52a1.86,1.86,0,0,0,.51,1.08c.44.37,1.26.33,2.28-.09A13.47,13.47,0,0,0,40,54.71c.31-.54,1.25-2.41.4-3.55a2.16,2.16,0,0,0-1.77-.75,3,3,0,0,0-.66.07A7.76,7.76,0,0,0,35.14,52C31.67,54.6,30.13,57.13,30.55,59.52Z" fill="#ffd66c"/><path d="M114.65,93.66a1.71,1.71,0,0,0-.78-.18,4.69,4.69,0,0,0-2.71,1.22,17.3,17.3,0,0,0-6.28,14.71,2.75,2.75,0,0,0,.48,1.59,1.23,1.23,0,0,0,1,.4,5.17,5.17,0,0,0,2.7-1.08,19.8,19.8,0,0,0,6.43-6.76,9.3,9.3,0,0,0,.3-8.66A2.86,2.86,0,0,0,114.65,93.66Z" fill="#ffd66c"/><path d="M124,35.44C110.51,14.19,89.63,1.5,68.18,1.5,57.3,1.5,46.5,4.73,36.11,11.09,17,22.82,4.53,41.37,2,62s5.07,41.39,21.47,58.1c11.84,12.07,26.62,18.44,42.73,18.45h0c26.64,0,53.59-17.89,65.54-43.51C139.63,78.11,136.68,55.28,124,35.44ZM66.73,16.37c.76-2.09,3.45-3.45,4.92-3.91a14.08,14.08,0,0,1,11.08,1.49,3.84,3.84,0,0,1,2,3.24,4,4,0,0,1-2,3.35,8.51,8.51,0,0,1-4.25,1.06c-.44,0-1.07,0-1.81,0a30.79,30.79,0,0,1-6-.51c-1.83-.39-3-1-3.54-1.87A3.18,3.18,0,0,1,66.73,16.37ZM63.18,36.6a50.51,50.51,0,0,1,6.71-5.29c3.8-2.42,7.44-3.47,10.74-3.12,4.23.45,7.79,3.58,8.3,7.27.46,3.41-1.42,6.49-3.53,9.32-2.55,3.42-5.46,6.8-9.47,8.33a16.87,16.87,0,0,1-6.11,1h-.44a15,15,0,0,1-7.14-1.64,8.26,8.26,0,0,1-4.37-6C57.39,42.42,60.45,39.07,63.18,36.6ZM37.61,49a4.53,4.53,0,0,1,1-.11,3.63,3.63,0,0,1,3,1.35c1,1.28.86,3.18-.29,5.2a15,15,0,0,1-7.37,6.45,5.48,5.48,0,0,1-2,.45h0a2.7,2.7,0,0,1-1.78-.6,3.19,3.19,0,0,1-1-2c-.53-3,1.21-6,5.17-9A9,9,0,0,1,37.61,49ZM16.85,51.77c-2.1-3.78-.71-11,.84-13.52,1.81-2.89,4.91-6.59,9.44-7.76,1.92-.49,3.65-.13,4.54,1a4.39,4.39,0,0,1,.77,2.35,20.62,20.62,0,0,1-.68,6.68c-.67,2.8-3.34,12-9.54,13.44a6.57,6.57,0,0,1-1.43.17A4.3,4.3,0,0,1,16.85,51.77ZM38.12,108a7.07,7.07,0,0,1-5.06,3.52,6,6,0,0,1-.74,0,7.84,7.84,0,0,1-5-2,18.33,18.33,0,0,1-3.6-4.54,84.32,84.32,0,0,1-4.85-9.1,8.2,8.2,0,0,1-.42-1.14,8.8,8.8,0,0,1,.69-6.68,6.26,6.26,0,0,1,3.95-3,6.18,6.18,0,0,1,1.53-.19c3.9,0,8.33,3.29,10.35,5.5a17.5,17.5,0,0,1,4.55,11.73A11.39,11.39,0,0,1,38.12,108Zm9.7,15.12a3.73,3.73,0,0,1-.61.05c-1.83,0-3.39-1.35-4.41-2.36a10.51,10.51,0,0,1-2.52-3.44,4.67,4.67,0,0,1,.42-4.54,4.31,4.31,0,0,1,3.44-1.58,5,5,0,0,1,1.15.14,8.57,8.57,0,0,1,5.9,7.44A4.4,4.4,0,0,1,47.82,123.08ZM58.71,92.54h0a4.48,4.48,0,0,1-3.44-1.33c-1.52-1.64-1.16-4.25,0-5.88,1.4-2,5.8-4.31,9.37-4.31,2.68,0,4.35,1.32,4.7,3.72A5.56,5.56,0,0,1,67,89.8,14.22,14.22,0,0,1,62.13,92,12.19,12.19,0,0,1,58.71,92.54Zm9,15.26a5.74,5.74,0,0,1-2.19-2,5.82,5.82,0,0,1-.86-4.25c1-5.19,8.62-7.12,13.15-7.12a13,13,0,0,1,2.07.15c2.81.46,5.83,2.25,5.8,5.11a5.3,5.3,0,0,1-1.36,3.25c-2.27,2.8-8.88,5.54-13.34,5.54A7.16,7.16,0,0,1,67.68,107.8Zm26.49,12.75c-2,3.4-7.86,5.25-9,5.59a6.82,6.82,0,0,1-1.92.31,3.17,3.17,0,0,1-2.11-.7c-1.67-1.41-1-4,.3-5.72a18.25,18.25,0,0,1,1.68-1.92c1.25-1.26,4.49-4.19,7.58-4.19h.2a4.1,4.1,0,0,1,3.65,2A4.68,4.68,0,0,1,94.17,120.54Zm7.42-90.8a3.57,3.57,0,0,1,2.33-.78c3.14,0,6.95,3,8.11,4.68a15.85,15.85,0,0,1,2.69,8.2,4.08,4.08,0,0,1-.69,3,2.74,2.74,0,0,1-2.19,1c-3.77,0-9.59-6-11.18-10.41C99.8,32.94,100.12,30.94,101.59,29.74Zm15.23,74.51a21.2,21.2,0,0,1-6.89,7.29,6.7,6.7,0,0,1-3.57,1.36,2.74,2.74,0,0,1-2.09-.89,4.07,4.07,0,0,1-.87-2.48,18.82,18.82,0,0,1,6.83-16A6.2,6.2,0,0,1,113.87,92a3.22,3.22,0,0,1,1.46.34,4.27,4.27,0,0,1,1.76,1.85A10.81,10.81,0,0,1,116.81,104.25Zm12.6-24.56a12.76,12.76,0,0,1-6.63,8.77A4.14,4.14,0,0,1,121,89a2.35,2.35,0,0,1-.8-.14c-1.41-.51-2-2.22-1.45-4.47a47.88,47.88,0,0,1,2.1-6.81c.69-1.77,2.33-4.8,5.12-4.55a4.07,4.07,0,0,1,3.3,2.66A7,7,0,0,1,129.41,79.69Z" fill="#fff58b"/><path d="M125.79,74.52h-.18c-1.8,0-3,2.52-3.41,3.61a46.26,46.26,0,0,0-2,6.59c-.2.87-.32,2.43.5,2.72a1.93,1.93,0,0,0,1.44-.32,11.41,11.41,0,0,0,5.84-7.73,5.64,5.64,0,0,0-.12-3.16A2.6,2.6,0,0,0,125.79,74.52Z" fill="#ffd66c"/><path d="M111.85,44.29a1.24,1.24,0,0,0,1-.44,2.83,2.83,0,0,0,.34-1.92,14.37,14.37,0,0,0-2.42-7.42c-1-1.43-4.4-4-6.89-4a2.09,2.09,0,0,0-1.38.44c-1,.79-1.12,2.13-.46,4C103.59,39.1,109,44.29,111.85,44.29Z" fill="#ffd66c"/><path d="M125.31,34.63C111.5,12.95,90.15,0,68.18,0,57,0,46,3.3,35.33,9.81,15.79,21.78,3.09,40.73.5,61.81s5.16,42.29,21.89,59.34C34.51,133.5,49.66,140,66.18,140h0c27.2,0,54.71-18.25,66.9-44.37C141.2,78.29,138.22,54.9,125.31,34.63ZM131.73,95c-12,25.62-38.91,43.51-65.54,43.51h0c-16.11,0-30.88-6.38-42.73-18.45C7.05,103.38-.57,82.74,2,62s15-39.17,34.13-50.9C46.5,4.73,57.3,1.5,68.18,1.5c21.45,0,42.33,12.69,55.87,33.94C136.68,55.28,139.63,78.11,131.73,95Z" fill="#e6b63d"/><path d="M62.24,52.48a15,15,0,0,0,7.14,1.64h.44a16.87,16.87,0,0,0,6.11-1c4-1.54,6.92-4.91,9.47-8.33,2.11-2.83,4-5.92,3.53-9.32-.51-3.69-4.07-6.82-8.3-7.27-3.3-.36-6.94.7-10.74,3.12a50.51,50.51,0,0,0-6.71,5.29c-2.72,2.47-5.79,5.82-5.3,9.84A8.26,8.26,0,0,0,62.24,52.48Zm1.94-14.77a49.16,49.16,0,0,1,6.51-5.14,16.41,16.41,0,0,1,8.66-2.95,10.45,10.45,0,0,1,1.12.06c3,.33,6.5,2.53,7,6,.39,2.87-1.33,5.65-3.25,8.22-2.41,3.24-5.15,6.43-8.81,7.83a15.41,15.41,0,0,1-5.57.9h-.41A13.52,13.52,0,0,1,63,51.17a6.86,6.86,0,0,1-3.61-4.91C59,42.92,61.73,39.94,64.19,37.71Z" fill="#e6b63d"/><path d="M70.64,21.12a30.79,30.79,0,0,0,6,.51c.74,0,1.37,0,1.81,0a8.51,8.51,0,0,0,4.25-1.06,4,4,0,0,0,2-3.35,3.84,3.84,0,0,0-2-3.24,14.08,14.08,0,0,0-11.08-1.49c-1.47.47-4.16,1.82-4.92,3.91a3.18,3.18,0,0,0,.37,2.88C67.65,20.12,68.8,20.73,70.64,21.12Zm-2.5-4.24c.46-1.29,2.34-2.48,4-3a10.74,10.74,0,0,1,3.26-.49A12.92,12.92,0,0,1,82,15.23a2.39,2.39,0,0,1,1.29,2,2.5,2.5,0,0,1-1.33,2.07,7.17,7.17,0,0,1-3.51.83c-.42,0-1,0-1.75,0a29.31,29.31,0,0,1-5.7-.48c-1.84-.39-2.42-.93-2.6-1.21A1.69,1.69,0,0,1,68.14,16.88Z" fill="#e6b63d"/><path d="M24.65,84.87a6.18,6.18,0,0,0-1.53.19,6.26,6.26,0,0,0-3.95,3,8.8,8.8,0,0,0-.69,6.68,8.2,8.2,0,0,0,.42,1.14,84.32,84.32,0,0,0,4.85,9.1,18.33,18.33,0,0,0,3.6,4.54,7.84,7.84,0,0,0,5,2,6,6,0,0,0,.74,0A7.07,7.07,0,0,0,38.12,108a11.39,11.39,0,0,0,1.43-5.86A17.5,17.5,0,0,0,35,90.37C33,88.16,28.55,84.87,24.65,84.87Zm12.18,22.33a5.57,5.57,0,0,1-4,2.8,6,6,0,0,1-4.55-1.59A17,17,0,0,1,25,104.23a82.74,82.74,0,0,1-4.77-8.94,6.65,6.65,0,0,1-.34-.93,7.37,7.37,0,0,1,.55-5.52,4.79,4.79,0,0,1,3-2.33,4.68,4.68,0,0,1,1.16-.14c3,0,7,2.59,9.25,5a16,16,0,0,1,4.15,10.72A9.93,9.93,0,0,1,36.83,107.19Z" fill="#e6b63d"/><path d="M45.29,111.36a5,5,0,0,0-1.15-.14,4.31,4.31,0,0,0-3.44,1.58,4.67,4.67,0,0,0-.42,4.54,10.51,10.51,0,0,0,2.52,3.44c1,1,2.58,2.36,4.41,2.36a3.73,3.73,0,0,0,.61-.05,4.4,4.4,0,0,0,3.37-4.29,8.57,8.57,0,0,0-5.9-7.44Zm2.29,10.25c-1.41.24-2.81-1-3.72-1.89a9.22,9.22,0,0,1-2.19-2.93,3.22,3.22,0,0,1,.22-3.07,2.81,2.81,0,0,1,2.25-1,3.45,3.45,0,0,1,.8.09,7.12,7.12,0,0,1,4.75,6A2.91,2.91,0,0,1,47.57,121.61Z" fill="#e6b63d"/><path d="M115.33,92.31a3.22,3.22,0,0,0-1.46-.34,6.2,6.2,0,0,0-3.65,1.56,18.82,18.82,0,0,0-6.83,16,4.07,4.07,0,0,0,.87,2.48,2.74,2.74,0,0,0,2.09.89,6.7,6.7,0,0,0,3.57-1.36,21.2,21.2,0,0,0,6.89-7.29,10.81,10.81,0,0,0,.28-10.09A4.27,4.27,0,0,0,115.33,92.31Zm.16,11.24a19.8,19.8,0,0,1-6.43,6.76,5.17,5.17,0,0,1-2.7,1.08,1.23,1.23,0,0,1-1-.4,2.75,2.75,0,0,1-.48-1.59,17.3,17.3,0,0,1,6.28-14.71,4.69,4.69,0,0,1,2.71-1.22,1.71,1.71,0,0,1,.78.18,2.86,2.86,0,0,1,1.12,1.24A9.3,9.3,0,0,1,115.48,103.56Z" fill="#e6b63d"/><path d="M125.92,73c-2.79-.26-4.43,2.78-5.12,4.55a47.88,47.88,0,0,0-2.1,6.81c-.51,2.25,0,4,1.45,4.47a2.35,2.35,0,0,0,.8.14,4.14,4.14,0,0,0,1.83-.53,12.76,12.76,0,0,0,6.63-8.77,7,7,0,0,0-.19-4A4.07,4.07,0,0,0,125.92,73Zm2,6.37a11.41,11.41,0,0,1-5.84,7.73,1.93,1.93,0,0,1-1.44.32c-.82-.29-.7-1.85-.5-2.72a46.26,46.26,0,0,1,2-6.59c.42-1.08,1.61-3.61,3.41-3.61h.18a2.6,2.6,0,0,1,2,1.72A5.64,5.64,0,0,1,127.94,79.4Z" fill="#e6b63d"/><path d="M22.21,54c6.21-1.4,8.88-10.64,9.54-13.44a20.62,20.62,0,0,0,.68-6.68,4.39,4.39,0,0,0-.77-2.35c-.89-1.14-2.62-1.5-4.54-1-4.53,1.17-7.63,4.86-9.44,7.76-1.55,2.49-2.94,9.74-.84,13.52a4.3,4.3,0,0,0,3.93,2.37A6.57,6.57,0,0,0,22.21,54Zm-4-2.92c-1.67-3-.68-9.61.81-12,1.66-2.66,4.49-6.06,8.54-7.1a5.22,5.22,0,0,1,1.28-.17,2.12,2.12,0,0,1,1.7.65A3,3,0,0,1,30.94,34a19.25,19.25,0,0,1-.65,6.2C29.86,42,27.38,51.26,21.88,52.5A3,3,0,0,1,18.16,51Z" fill="#e6b63d"/><path d="M84.3,102.92a5.3,5.3,0,0,0,1.36-3.25c0-2.85-3-4.65-5.8-5.11a13,13,0,0,0-2.07-.15c-4.53,0-12.11,1.93-13.15,7.12a5.82,5.82,0,0,0,.86,4.25,5.74,5.74,0,0,0,2.19,2,7.16,7.16,0,0,0,3.28.67C75.42,108.47,82,105.72,84.3,102.92ZM71,107a5.71,5.71,0,0,1-2.59-.5A4.24,4.24,0,0,1,66.76,105a4.31,4.31,0,0,1-.65-3.14c.82-4.08,7.33-5.92,11.68-5.92a11.51,11.51,0,0,1,1.83.13c2.27.37,4.56,1.73,4.54,3.61a3.87,3.87,0,0,1-1,2.32C81.32,104.22,75.34,107,71,107Z" fill="#e6b63d"/><path d="M111.85,45.79a2.74,2.74,0,0,0,2.19-1,4.08,4.08,0,0,0,.69-3,15.85,15.85,0,0,0-2.69-8.2c-1.16-1.63-5-4.68-8.11-4.68a3.57,3.57,0,0,0-2.33.78c-1.46,1.2-1.79,3.2-.92,5.64C102.26,39.83,108.07,45.79,111.85,45.79ZM102.54,30.9a2.09,2.09,0,0,1,1.38-.44c2.49,0,5.87,2.62,6.89,4a14.37,14.37,0,0,1,2.42,7.42,2.83,2.83,0,0,1-.34,1.92,1.24,1.24,0,0,1-1,.44c-2.87,0-8.26-5.19-9.77-9.42C101.42,33,101.57,31.69,102.54,30.9Z" fill="#e6b63d"/><path d="M69.31,84.74c-.35-2.4-2-3.72-4.7-3.72-3.57,0-8,2.31-9.37,4.31-1.12,1.62-1.48,4.23,0,5.88a4.48,4.48,0,0,0,3.44,1.33h0A12.19,12.19,0,0,0,62.13,92,14.22,14.22,0,0,0,67,89.8,5.56,5.56,0,0,0,69.31,84.74Zm-3.26,3.87a12.8,12.8,0,0,1-4.34,1.9,10.91,10.91,0,0,1-3,.53h0a3,3,0,0,1-2.34-.85c-1-1-.7-2.85.09-4,1.14-1.62,5.2-3.67,8.14-3.67,1.92,0,3,.8,3.22,2.44A4.13,4.13,0,0,1,66.05,88.62Z" fill="#e6b63d"/><path d="M29.08,59.79a3.19,3.19,0,0,0,1,2,2.7,2.7,0,0,0,1.78.6h0a5.48,5.48,0,0,0,2-.45,15,15,0,0,0,7.37-6.45c1.15-2,1.25-3.91.29-5.2a3.63,3.63,0,0,0-3-1.35,4.53,4.53,0,0,0-1,.11,9,9,0,0,0-3.37,1.78C30.28,53.77,28.55,56.79,29.08,59.79ZM35.14,52a7.76,7.76,0,0,1,2.8-1.52,3,3,0,0,1,.66-.07,2.16,2.16,0,0,1,1.77.75c.86,1.14-.09,3-.4,3.55a13.47,13.47,0,0,1-6.63,5.8c-1,.41-1.84.46-2.28.09a1.86,1.86,0,0,1-.51-1.08C30.13,57.13,31.67,54.6,35.14,52Z" fill="#e6b63d"/><path d="M79.37,55.19a41.63,41.63,0,0,1-8.12,1.41c-1.64.15-8,.75-8.9-.73a.58.58,0,0,0-1.06.45c.62,2.26,4.37,2.43,6.28,2.6A24.19,24.19,0,0,0,80,56.7C80.88,56.32,80.26,54.93,79.37,55.19Z" fill="#ffd66c"/><path d="M86.36,50l-1.25.85A12.66,12.66,0,0,0,83.72,52a1.15,1.15,0,0,0,0,1.61,1.17,1.17,0,0,0,1.61,0c.4-.32.82-.62,1.19-1s.7-.75,1-1.12C88.32,50.73,87.33,49.3,86.36,50Z" fill="#ffd66c"/><path d="M34.87,64.89c-2.45.14-4.89-.09-7.33-.06-.54,0-.85.84-.3,1.09a11.29,11.29,0,0,0,7.8.26C35.74,66,35.63,64.85,34.87,64.89Z" fill="#ffd66c"/><path d="M30.71,115.17c-2.31-.56-4.25-1.3-5.58-3.38-1.11-1.73-1.51-3.74-3.06-5.18-.45-.42-1.26.14-.88.68,1.5,2.15,1.8,4.84,3.48,6.89a6.44,6.44,0,0,0,6.05,2.32A.7.7,0,0,0,30.71,115.17Z" fill="#ffd66c"/><path d="M86.15,105.69c-1.8.4-3.34,1.58-5,2.37A34.45,34.45,0,0,1,75,110.28c-.95.25-.54,1.61.4,1.45,3.69-.66,9.19-1.85,11.6-5C87.38,106.2,86.69,105.58,86.15,105.69Z" fill="#ffd66c"/><path d="M90.79,101.16a.6.6,0,0,0-.9-.52,1.4,1.4,0,0,0-.66.44,6.17,6.17,0,0,0-.43.72l-.9,1.66a.75.75,0,0,0,1.3.76l.95-1.39c.16-.23.32-.46.47-.7A1.51,1.51,0,0,0,90.79,101.16Z" fill="#ffd66c"/><path d="M111.78,111.8a29.1,29.1,0,0,1-7.74,3.84.66.66,0,0,0,.17,1.29,10.67,10.67,0,0,0,8.48-4C113.2,112.38,112.5,111.26,111.78,111.8Z" fill="#ffd66c"/><path d="M61.1,94.46a11.92,11.92,0,0,1-3.83.08,24.71,24.71,0,0,1-3.42-1.1.12.12,0,0,0-.13.17c1.57,2.35,5.21,2.59,7.6,1.64A.41.41,0,0,0,61.1,94.46Z" fill="#ffd66c"/><path d="M112.37,46.9c-1.55-.22-3.12-.54-4.64-.92a25.14,25.14,0,0,1-4.66-2.16c-.27-.13-.64.15-.45.45,2,3.06,6.29,4.46,9.75,3.87A.65.65,0,0,0,112.37,46.9Z" fill="#ffd66c"/><path d="M117.45,43.6a4.21,4.21,0,0,0-1.18,1.1,3.05,3.05,0,0,0-.72,1.54.43.43,0,0,0,.53.41,2.78,2.78,0,0,0,1.2-.94,4.39,4.39,0,0,0,.91-1.55A.51.51,0,0,0,117.45,43.6Z" fill="#ffd66c"/><path d="M127.64,86.76a9.29,9.29,0,0,0-3,2,32.26,32.26,0,0,0-3.1,2.73.58.58,0,0,0,.7.9,32.3,32.3,0,0,0,3.46-2.26,9.26,9.26,0,0,0,2.74-2.36A.71.71,0,0,0,127.64,86.76Z" fill="#ffd66c"/><path d="M73.85,22.14a15.81,15.81,0,0,1-4.37-.44,13.13,13.13,0,0,1-4.27-2.36c-.39-.26-.81.24-.61.61,1.73,3.19,6.13,4.44,9.41,3.39C74.64,23.14,74.56,22.11,73.85,22.14Z" fill="#ffd66c"/><path d="M82.69,22.23a6.35,6.35,0,0,0-3.78.12.55.55,0,0,0,0,1,6.35,6.35,0,0,0,3.78.12A.63.63,0,0,0,82.69,22.23Z" fill="#ffd66c"/><path d="M25.62,70.35c-.76-1.13-2.68-.59-3.38.58s-.61,2.62-.74,4a1.86,1.86,0,0,0,.18,1.35,1.2,1.2,0,0,0,.71.4A2.66,2.66,0,0,0,25,75.31a7.12,7.12,0,0,0,.83-3A2.87,2.87,0,0,0,25.62,70.35Z" fill="#ffd66c"/><path d="M108.94,72a2.72,2.72,0,0,0-1.49-1.55c-4.46-2.42-10.12-1.7-14.55.76a7.71,7.71,0,0,0-3.54,3.41A3.49,3.49,0,0,0,90.55,79a5.28,5.28,0,0,0,2.29.44,30.27,30.27,0,0,0,8.94-.54c2.9-.77,5.68-2.56,6.89-5.3A2.54,2.54,0,0,0,108.94,72Z" fill="#ffd66c"/><path d="M110.16,68.12a7.33,7.33,0,0,0,3.78-.51,3.13,3.13,0,0,0,1.85-3.1,2.18,2.18,0,0,0-.21-.64,2.68,2.68,0,0,0-2.52-1.28,6.22,6.22,0,0,0-2.79,1,4.71,4.71,0,0,0-1.92,1.75,1.92,1.92,0,0,0,.39,2.39A2.71,2.71,0,0,0,110.16,68.12Z" fill="#ffd66c"/><path d="M47.25,24.79a8.37,8.37,0,0,0-2.19,2.1c-1,1.52-1.06,3.44-1.09,5.26,2.45,2,6.24,1.59,8.7-.36a11.41,11.41,0,0,0,3.9-8.25,5.7,5.7,0,0,0-4.8-1A12.24,12.24,0,0,0,47.25,24.79Z" fill="#ffd66c"/><path d="M58.1,14.74a7.36,7.36,0,0,0-6,2.54,1.66,1.66,0,0,0-.52,1.38,1.59,1.59,0,0,0,.95,1,5.49,5.49,0,0,0,6.78-1.9c.51-.79.74-2,0-2.57A2.08,2.08,0,0,0,58.1,14.74Z" fill="#ffd66c"/><path d="M61.42,64.63c-2.84-.09-6.24.19-7.64,2.67a1.6,1.6,0,0,0-.24,1.19,1.8,1.8,0,0,0,.87.95,9.77,9.77,0,0,0,9,.61c1.26-.56,2.52-1.68,2.34-3C65.51,65.21,63.21,64.68,61.42,64.63Z" fill="#ffd66c"/><path d="M95.93,18.6A5.13,5.13,0,0,0,89.4,13a6.73,6.73,0,0,0,2.89,7.25,2.65,2.65,0,0,0,2.33.41A2.52,2.52,0,0,0,95.93,18.6Z" fill="#ffd66c"/><path d="M102.21,93.57a2.05,2.05,0,0,0-2.46-1.88A3.87,3.87,0,0,0,97.18,94c-1,2-1,4.41-1.36,6.64,1.38.52,2.93-.39,3.79-1.59a39.43,39.43,0,0,0,2-4A3.84,3.84,0,0,0,102.21,93.57Z" fill="#ffd66c"/></g></g></svg>